<svg height="512pt" viewBox="-52 0 512 512.00052" width="512pt" xmlns="http://www.w3.org/2000/svg"><path d="m364.824219 297.070312c.039062.003907.078125.003907.121093.007813-.039062-.003906-.078124-.003906-.121093-.007813zm0 0"/><path d="m364.390625 297.050781c.050781 0 .09375.003907.136719.007813-.050782-.003906-.097656-.007813-.136719-.007813zm0 0"/><path d="m365.238281 297.09375c.03125 0 .058594.003906.09375.003906.019531 0-.019531 0-.09375-.003906zm0 0"/><path d="m394.082031 240.933594-19.839843-17.910156c-11.359376-10.28125-11.402344-28.039063 0-38.355469l19.839843-17.910157c28.730469-25.960937 8.441407-73.230468-29.5-71.234374l-26.695312 1.367187c-14.824219.777344-27.15625-11.085937-27.15625-25.757813 0-.949218-.03125.171876 1.394531-28.042968 1.976562-38.015625-45.304688-58.261719-71.21875-29.511719l-17.910156 19.832031c-10.21875 11.3125-28.019532 11.445313-38.355469 0l-17.910156-19.832031c-19.25-21.324219-52.207031-16.289063-65.726563 6.566406-2.121094 3.585938-.933594 8.210938 2.644532 10.332031 3.589843 2.121094 8.210937.933594 10.332031-2.65625 8.265625-13.988281 29.035156-18.019531 41.5625-4.140624l17.910156 19.839843c16.222656 17.976563 44.507813 17.972657 60.726563 0l17.914062-19.839843c15.878906-17.59375 45.015625-6.375 45.015625 17.136718 0 2.292969-1.457031 27.382813-1.457031 30.316406 0 22.53125 18.34375 40.867188 40.878906 40.867188 3.417969 0 27.621094-1.449219 30.3125-1.449219 23.515625 0 34.730469 29.140625 17.136719 45.019531l-19.839844 17.910157c-18 16.25-17.96875 44.507812 0 60.730469l19.839844 17.910156c17.949219 16.199218 5.925781 46.226562-18.632813 44.976562-.007812 0-.011718 0-.015625 0-.019531 0-.097656-.003906-.253906-.011718.0625 0 .117187.003906.160156.007812-.105469-.007812-.203125-.011719-.289062-.015625.035156 0 .070312.003906.105469.003906-.101563-.003906-.234376-.011719-.402344-.019531-.015625 0-.035156-.003906-.046875-.003906h.027343c-.035156 0-.070312 0-.105468-.003906h.027344c-.15625-.007813-.242188-.011719-.269532-.011719.015625 0 .054688 0 .105469.003906-.035156-.003906-.074219-.003906-.113281-.007813-.003906 0-.003906 0-.003906 0-2.257813-.113281-8.777344-.445312-25.613282-1.300781-24.566406-1.28125-44.300781 19.230469-42.945312 42.9375 1.4375 28.554688 1.394531 26.894531 1.394531 28.195313 0 17.953125-16.925781 28.570312-31.832031 25.085937-4.058594-.945312-8.109375 1.578125-9.054688 5.628907-.945312 4.058593 1.578125 8.109374 5.628906 9.054687 24.3125 5.667969 51.445313-12.574219 50.285157-42.03125-1.441407-28.265625-1.40625-27.101563-1.40625-28.054687 0-9.597657 5.277343-17.992188 13.074219-22.433594v170.144531c0 7.808594-6.570313 12.644531-12.664063 12.644531-6.089844 0-.722656.945313-92.890625-54.628906-4.339844-2.652344-9.335938-4.058594-14.433594-4.058594-5.09375 0-10.089844 1.40625-14.433594 4.058594-92.066406 55.511719-86.769531 54.628906-92.890624 54.628906-6.089844 0-12.664063-4.835937-12.664063-12.644531v-170.140625c8.050781 4.582031 13.5 13.367188 13.035156 23.789062l-1.355469 26.6875c-2 38 45.320313 58.210938 71.222657 29.507813l17.910156-19.839844c10.214844-11.3125 28.015625-11.445312 38.355469 0l11.253906 12.472657c2.785156 3.085937 7.558594 3.328124 10.644531.542968 3.097657-2.792968 3.339844-7.558594.542969-10.652344-6.949219-6-16.839844-25.960937-41.621094-25.960937-11.558594 0-22.625 4.921875-30.363281 13.496094l-17.910156 19.839843c-16.339844 18.105469-46.402344 5.621094-44.980469-18.632812 1.441406-28.527344 1.417969-27.195312 1.417969-28.816406 0-22.351563-18.328125-41.875-43.230469-40.808594-28.828125 1.457031-26.707031 1.386719-27.960938 1.386719-23.515624 0-34.730468-29.136719-17.136718-45.015625l19.839844-17.910156c18-16.25 17.96875-44.507813 0-60.730469l-19.839844-17.910157c-17.710938-15.984374-6.40625-45.972656 18.636718-44.988281l26.683594 1.367188c24.59375 1.261719 44.285156-19.230469 42.949219-42.949219l-.824219-16.070312c-.210937-4.160157-3.761718-7.367188-7.910156-7.148438-4.152344.210938-7.359375 3.75-7.148438 7.910156l.824219 16.082032c.691407 15.585937-11.894531 27.792968-27.117187 27.117187-27.902344-1.402344-26.5-1.414063-28.957032-1.414063-36.605468 0-55.3125 45.914063-27.238281 71.28125l19.839844 17.910157c11.363281 10.277343 11.40625 28.039062 0 38.355469l-19.839844 17.910156c-28.644531 25.847656-8.570312 73.222656 29.5 71.222656l25.699219-1.308594v173.421875c0 21.535157 23.6875 34.925781 42.136719 23.628907l86.355469-52.75c3.960937-2.410157 9.1875-2.410157 13.148437 0l86.359375 52.75c18.4375 11.292968 42.132812-2.085938 42.132812-23.628907v-173.421875l25.699219 1.308594c26.527344 1.355469 43.078125-20.746094 43.078125-41.160156 0-11.480469-4.824218-22.164063-13.578125-30.0625zm0 0"/><path d="m364.820312 297.070312c-.066406 0-.128906-.003906-.191406-.007812h.023438c.050781.003906.105468.007812.167968.007812zm0 0"/><path d="m283 107.949219c2.453125-3.363281 1.71875-8.078125-1.644531-10.53125-86.027344-62.777344-209.207031-1.648438-209.207031 106.425781 0 72.601562 59.066406 131.667969 131.667968 131.667969 72.601563 0 131.667969-59.066407 131.667969-131.667969 0-30.941406-10.945313-61.007812-30.824219-84.660156-2.679687-3.1875-7.433594-3.601563-10.621094-.921875-3.183593 2.679687-3.597656 7.433593-.917968 10.621093 17.59375 20.941407 27.285156 47.5625 27.285156 74.960938 0 64.289062-52.304688 116.59375-116.589844 116.59375-64.289062 0-116.59375-52.304688-116.59375-116.59375s52.304688-116.589844 116.59375-116.589844c24.878906 0 48.621094 7.726563 68.648438 22.34375 3.367187 2.453125 8.082031 1.714844 10.535156-1.648437zm0 0"/><path d="m165.789062 253.4375c-12.816406 0-23.242187 10.425781-23.242187 23.242188 0 12.816406 10.425781 23.242187 23.242187 23.242187h76.054688c12.816406 0 23.242188-10.425781 23.242188-23.242187 0-12.816407-10.425782-23.242188-23.242188-23.242188h-14.675781v-127.988281c0-10.921875-11.183594-17.683594-21.550781-17.683594-4.164063 0-8.046876 1.40625-11.242188 4.074219l-28.113281 21.441406c-5.71875 3.738281-9.25 10.417969-9.25 17.535156 0 11.082032 7.933593 20.097656 17.683593 20.097656 2.070313 0 4.097657-.390624 5.992188-1.132812v83.652344h-14.898438zm25.320313-106.925781c-2.816406-1.167969-6.058594-.523438-8.214844 1.632812l-7.484375 7.484375c-.136718.097656-.363281.210938-.714844.210938-1.027343 0-2.605468-2.25-2.605468-5.023438 0-2.003906 1.023437-4.042968 2.492187-4.960937 2.9375-1.839844 29.265625-23.011719 31.035157-23.011719 3.492187 0 6.28125 1.839844 6.476562 2.605469v135.527343c0 4.160157 3.375 7.535157 7.535156 7.535157h22.214844c4.503906 0 8.164062 3.664062 8.164062 8.167969 0 4.503906-3.660156 8.167968-8.164062 8.167968h-76.054688c-4.5 0-8.164062-3.664062-8.164062-8.167968 0-4.503907 3.664062-8.167969 8.164062-8.167969h22.4375c4.160157 0 7.535157-3.375 7.535157-7.535157v-107.503906c0-3.046875-1.835938-5.796875-4.652344-6.960937zm0 0"/></svg>